# xmcd
#
# Track frame offsets:
#      150
#      24700
#      36367
#      59750
#      75657
#      87927
#      126910
#      149092
#      166492
#      185655
#      209720
#      234662
#      249990
#      267082
#      287780
#      299792
#      316940
# 
# Disc length: 4583 seconds
#
# Revision: 1
# Processed by: cddbd v1.4PL0 Copyright (c) Steve Scherf et al.
#
# Submitted via: FreeRIP 1.20
#
DISCID=1511e511
DTITLE=B.B. King - HIS DEFINITIVE GREATEST HITS [CD 1)
DYEAR=1999
DGENRE=Blues
TTITLE0=The Thrill Is Gone
TTITLE1=Paying The Cost To Be The Boss
TTITLE2=Don't Answer The Door (Parts One and Two)
TTITLE3=I Like To Live The Love
TTITLE4=How Blue Can You Get
TTITLE5=Why I Sing The Blues
TTITLE6=Chains And Things
TTITLE7=To Know You Is To Love You
TTITLE8=When Love Comes To Town (with U2)
TTITLE9=Playin' With My Friends (with Robert Cray)
TTITLE10=Never Make Your Move Too Soon
TTITLE11=Better Not Look Down
TTITLE12=there Must Be A Better World Somewhere
TTITLE13=Hummingbird
TTITLE14=Everyday I Have The Blues (Live)
TTITLE15=Sweet Little Angel (Live)
TTITLE16=Bollere (Live with R.Amador)
EXTD=
EXTT0=
EXTT1=
EXTT2=
EXTT3=
EXTT4=
EXTT5=
EXTT6=
EXTT7=
EXTT8=
EXTT9=
EXTT10=
EXTT11=
EXTT12=
EXTT13=
EXTT14=
EXTT15=
EXTT16=
PLAYORDER=
